
<svg version="1.2" xmlns="http://www.w3.org/2000/svg" viewBox="0 0 512 354" width="512" height="354">
	<title>american-express-svg</title>
	<style>
		.s0 { fill: #306fc5 } 
		.s1 { opacity: .1;fill: #202121 } 
		.s2 { fill: #ffffff } 
	</style>
	<path class="s0" d="m512 324.3c0 16.7-13.6 30.2-30.3 30.2h-451.4c-16.8 0-30.3-13.5-30.3-30.2v-292.6c0-16.7 13.5-30.2 30.3-30.2h451.4c16.8 0 30.3 13.5 30.3 30.2z"/>
	<path class="s1" d="m21.5 324.3v-292.6c0-16.7 13.6-30.2 30.3-30.2h-21.5c-16.8 0-30.3 13.5-30.3 30.2v292.6c0 16.7 13.6 30.2 30.3 30.2h21.5c-16.7 0-30.3-13.5-30.3-30.2z"/>
	<g>
		<path class="s2" d="m74.6 142.7h15.3l-7.7-19.4z"/>
		<path class="s2" d="m155.9 208.1v9h25.8v9.8h-25.8v10.4h28.6l13.2-14.6-12.5-14.6z"/>
		<path class="s2" d="m356.9 123.3l-8.3 19.4h15.9z"/>
		<path class="s2" d="m230.3 242.9v-39.7l-18 19.5z"/>
		<path class="s2" d="m264.4 214.4c-0.7-4.2-3.5-6.3-7.6-6.3h-14.6v12.5h15.3c4.1 0 6.9-2.1 6.9-6.2z"/>
		<path class="s2" d="m313.1 219.2c1.4-0.7 2.1-2.7 2.1-4.8 0.7-2.8-0.7-4.2-2.1-4.9-1.4-0.7-3.5-0.7-5.6-0.7h-13.9v11.1h13.9c2.1 0 4.2 0 5.6-0.7z"/>
		<path fill-rule="evenodd" class="s2" d="m444.5 105.2v68.1h-32.7l-6.2-10.4v10.4h-40.4l-4.1-11.1h-9.8l-4.1 11.1h-20.9c-8.3 0-14.6-2-18.8-4.1v4.1h-50v-15.3c0-2 0-2-1.4-2h-1.4v18h-96.7v-8.3l-3.4 8.3h-20.2l-3.5-8.3v8.3h-40.3l-4.2-11.1h-9l-4.2 10.4-0.3 0.7h-36.2l0.3-0.7 16-35.4 13.9-32.7h30.6l3.5 8.3v-8.3h35.5l7.6 17.4 7.7-17.4h111.9c5.6 0 9.8 1.4 13.2 4.2v-4.2h31.3v4.2c5.6-2.8 11.8-4.2 19.5-4.2h44.5l4.2 8.3v-8.3h32.6l4.2 8.3v-8.3zm-267 58.4v-48.7h-18.8l-13.9 33.4-0.2 0.7-6.3-14.3-8.8-19.1-0.3-0.7h-18.4v46.6l-19.5-46.6h-17.4l-20.6 48.7h12.3l4.8-10.4h23.7l4.8 10.4h23.7v-38.2l16.7 38.2h10.2l16.2-36.7v0.1l0.7-1.6v38.2zm48-48.7h-39v49.4h39v-10.4h-27.2v-9.8h26.5v-9.7h-26.5v-9h27.2zm45.2 25.7c3.4-1.4 8.1-5.4 8.3-12.8-0.1-5.4-2.2-8.8-5.6-10.8-3.4-2.1-7.6-2.1-13.9-2.1h-26.4v48.6h11.8v-17.3h12.5c3.3 0 5.3 0 6.3 0.6 0.8 0.3 1.4 0.8 2.1 1.4 2.1 2.8 2.1 7 2.1 9.8v5.5h10.4v-9.7q0-0.6 0-1.2 0 0 0-0.1 0 0 0-0.1 0-0.1 0-0.2c-0.1-3.8-1.2-6.4-2.5-8.1q-0.3-0.4-0.7-0.8 0-0.1 0-0.1c-2.1-2.1-4.4-2.6-4.4-2.6zm27.8-25.7h-11.8v48.6h11.8zm135.6 48.7zm0 0v-48h-11.9v34.1l-20.1-34.1h-17.4v46.6l-19.5-46.6h-17.4l-16 38.3h-4.8c-3.5 0-6.3-0.7-8.4-2.8-2.7-2.8-3.4-6.3-3.4-11.8 0-4.9 1.4-9.1 3.4-11.1 2.8-2.1 4.9-2.8 9.1-2.8h11.1v-10.5h-11.1c-7.7 0-13.9 1.4-17.4 5.6-4.9 5.6-6.3 12.5-6.3 19.5 0 9 2.1 14.6 6.3 18.7 4.2 4.2 11.1 5.6 16.7 5.6h13.2l4.2-11.1h24.3l4.2 10.4h11.8 11.7v-6.3l0.1 0.1v-30.6l22.3 36.8z"/>
		<path class="s2" d="m265.2 135.2q0.3-0.3 0.5-0.7c0.6-1 1.4-2.8 1-5.3q-0.1-0.3-0.1-0.6 0-0.1-0.1-0.2c-0.3-1.2-1.2-1.9-2.1-2.3-1.4-0.7-3.5-0.7-5.5-0.7h-14v11.1h14c2 0 4.1 0 5.5-0.7q0.3-0.2 0.6-0.4 0 0 0.2-0.2z"/>
		<path fill-rule="evenodd" class="s2" d="m475.1 234.5q0 0.4-0.1 0.8c-0.6 8.1-4.6 14.9-11 18.7-4.2 2.8-10.5 3.5-16.7 3.5h-29.9v-4.2c-3.5 2.8-9.7 4.2-16 4.2h-94.6v-16c0-2.1 0-2.1-2.1-2.1h-1.3v18.1h-31.3v-18.8c-4.9 2.1-11.2 2.1-16 2.1h-3.5v16h-38.9l-8.8-10.1-10 10.1h-61.2v-70.2h62.6l9 10.4 9.7-10.4h41.8c4.1 0 12.5 0.6 16 4.1v-4.1h37.5c3.5 0 11.1 0.7 15.3 4.1v-4.1h57v4.1c2.8-2.8 9.1-4.1 13.9-4.1h32v4.1c0 0 5.3-4.1 9.6-4.1 4.4 0 33.5 0 33.5 0v2 31.3c2.1 3.5 3.5 8.4 3.5 13.2q0 0.7 0 1.4zm-198.9-22.2c0-1.8-0.2-3.4-0.5-4.9-3.1-7.3-11.1-9-18.2-9h-36.9l-14.6 16-0.3 0.3-2.6-2.8-12.4-13.5h-45.2v48.7h44.5l15.3-16 0.7 0.7 13.3 15.3h22.9v-18.1h13.9c10.4 0 20.1-2.8 20.1-16.7zm43.2 11.8c3.4-1.4 8.3-5.6 8.3-13.2 0-5.6-2.8-9-6.3-11.1-3.4-2.1-8.3-2.1-13.9-2.1h-26.4v49.4h11.8v-18.1h12.5c4.2 0 7 0 8.4 2.1 2.1 2 2.1 6.9 2.1 9.7v6.2h11.8v-9.7c0-4.2-0.7-6.9-2.1-9q-1-2.1-6.2-4.2zm54.2-26.4h-39v49.3h39v-10.4h-27.1v-9.7h26.4v-9.8h-26.4v-9h27.1zm47.3 34.1c0-4.9-1.4-8.4-3.5-10.5-2.8-2.7-7-4.1-13.2-4.1h-6.3c-1.4 0-2.8 0-4.2-0.7-1.3-0.7-2.7-1.4-2.7-3.5 0-1.4 0-2.8 1.4-3.5 1.4-0.7 2.7-0.7 4.8-0.7h21.6v-11.8h-23c-12.5 0-16.7 7.7-16.7 14.6 0 15.3 13.3 14.6 24.4 15.3 2.1 0 3.5 0.7 4.2 1.4 0.7 0.7 1.3 2.1 1.3 3.5 0 1.4-0.6 2.8-1.3 3.5-1.4 1.3-2.8 1.3-4.9 1.3h-22.3v10.5h22.3c11.8 0 18.1-4.9 18.1-15.3zm45.9 0c0-0.9-0.1-1.7-0.3-2.5-1.4-7.5-7.8-10.3-9.7-11-2.1-0.7-4.4-1.1-7.4-1.1h-6.3c-1.4 0-2.8 0-4.2-0.7-2-0.7-2.7-1.4-2.7-3.5 0-1.4 0.7-2.8 1.4-3.5 1.3-0.7 2.7-0.7 4.8-0.7h21.6v-11.8h-23c-1.3 0-2.4 0.1-3.5 0.3-9.4 1.7-13.2 7.7-13.2 14.3 0 15.3 13.3 14.6 24.4 15.3 2.1 0 3.5 0.7 4.2 1.4 0.6 0.7 1.3 2.1 1.3 3.5 0 1.4-0.7 2.8-1.3 3.5-1.4 1.3-2.8 1.3-4.9 1.3h-22.3v10.5h22.3c6.9 0 11.8-2.1 14.6-4.9q4.2-4.2 4.2-10.4z"/>
	</g>
</svg>