<svg xmlns="http://www.w3.org/2000/svg" viewBox="0 0 879 174">
  <metadata><?xpacket begin="﻿" id="W5M0MpCehiHzreSzNTczkc9d"?>
<x:xmpmeta xmlns:x="adobe:ns:meta/" x:xmptk="Adobe XMP Core 5.6-c142 79.160924, 2017/07/13-01:06:39        ">
   <rdf:RDF xmlns:rdf="http://www.w3.org/1999/02/22-rdf-syntax-ns#">
      <rdf:Description rdf:about=""/>
   </rdf:RDF>
</x:xmpmeta>
<?xpacket end="w"?></metadata>
<defs>
    <style>
      .cls-1 {
        fill: #2121c1;
      }

      .cls-1, .cls-2 {
        fill-rule: evenodd;
      }

      .cls-2 {
        fill: #08ca3a;
      }
    </style>
  </defs>
  <path id="pay" class="cls-1" d="M51.174,112.652c-15.521,0-26.179-11.78-26.179-26.179s9.724-26.18,26.18-26.18,26.179,11.781,26.179,26.18S66.694,112.652,51.174,112.652ZM22.937,174.735V121.628c6.545,10.1,20.944,13.09,30.667,13.09,29.546,0,46.563-21.318,46.563-48.245,0-27.114-18.887-48.245-47.31-48.245-10.472,0-22.814,4.488-29.919,14.773l-1.5-12.716H0.124v134.45H22.937ZM191.422,53c-5.236-9.163-17.017-14.96-29.358-14.96-26.928-.187-48.059,16.456-48.059,48.245,0,32.35,20.2,49.18,47.5,48.993,10.284-.187,24.683-5.423,29.919-16.269l1.122,13.464h21.5V40.285H192.17Zm-27.3,5.423c35.9,0,35.9,55.912,0,55.912-15.146,0-27.3-10.471-27.3-28.049S148.974,58.423,164.12,58.423ZM305.3,40.285L288.473,80.676l-9.537,25.431-8.789-25.992-14.025-39.83H229.569l36.838,90.693L247.52,174.735h25.058l57.969-134.45H305.3Z"/>
  <path id="hesap" class="cls-2" d="M344.852,0.415v130.9h22.813V84.189c0-13.838,9.35-25.245,22.814-25.245,12.154,0,20.943,7.106,20.943,23.935v48.433h22.814V82.693c0-27.114-11.594-44.879-37.773-44.879-10.472,0-20.57,3.179-28.8,13.838V0.415H344.852ZM547.931,93.352c3.553-37.96-15.708-57.034-46.562-57.034-29.919,0-48.993,20.2-48.993,48.245,0,29.546,18.887,49.18,50.676,49.18,14.025,0,29.919-4.861,39.643-14.959l-14.585-14.4c-5.236,5.423-16.269,8.6-24.684,8.6-16.082,0-25.992-8.228-27.488-19.635h71.993ZM476.312,74.466c3.365-11.968,13.463-17.952,25.805-17.952,13.09,0,22.44,5.984,23.936,17.952H476.312Zm161-25.805c-10.658-9.35-21.5-12.155-35.9-12.155-16.83,0-38.895,7.48-38.895,28.8,0,20.944,20.756,27.3,38.147,28.611,13.09,0.748,18.326,4.3,18.326,10.659,0,6.732-8.041,10.285-16.643,10.1-10.285-.187-23-3.74-31.789-12.9l-11.22,16.269c13.464,14.024,28.049,16.455,42.635,16.455,26.367,0,39.643-14.024,39.643-30.293,0-24.5-22.065-28.423-39.456-29.545-11.781-.748-17.2-4.114-17.2-10.1,0-5.8,5.984-9.163,16.83-9.163,8.789,0,16.269,2.057,22.814,8.228Zm94.434,3.179c-5.236-9.163-17.016-14.96-29.358-14.96-26.928-.187-48.058,16.456-48.058,48.245,0,32.351,20.2,49.18,47.5,48.993,10.285-.187,24.683-5.422,29.919-16.268l1.122,13.464h21.5V39.123H732.5Zm-27.3,5.423c35.9,0,35.9,55.912,0,55.912-15.147,0-27.3-10.472-27.3-28.05S689.3,57.262,704.449,57.262ZM830.3,111.491c-15.521,0-26.18-11.781-26.18-26.18s9.724-26.18,26.18-26.18,26.179,11.781,26.179,26.18S845.818,111.491,830.3,111.491ZM802.06,173.574V120.467c6.545,10.1,20.944,13.089,30.668,13.089,29.545,0,46.562-21.317,46.562-48.245,0-27.115-18.887-48.245-47.31-48.245-10.472,0-22.814,4.488-29.92,14.773l-1.5-12.716H779.247V173.574H802.06Z"/>
</svg>
